<?xml version="1.0" encoding="UTF-8"?>
<svg width="176px" height="176px" viewBox="0 0 176 176" version="1.1" xmlns="http://www.w3.org/2000/svg" xmlns:xlink="http://www.w3.org/1999/xlink">
    <!-- Generator: Sketch 54.1 (76490) - https://sketchapp.com -->
    <title>Artboard</title>
    <desc>Created with Sketch.</desc>
    <g id="Artboard" stroke="none" stroke-width="1" fill="none" fill-rule="evenodd">
        <rect fill="#04005D" x="0" y="0" width="176" height="176"></rect>
        <g id="womensmarchlogo_01_bluepink_800x800px" transform="translate(0.000000, 3.000000)" fill-rule="nonzero">
            <g id="Group">
                <path d="M46.28,78.9 L53.83,48.15 C54.35,45.71 54.79,43.64 55.16,41.93 C55.53,40.23 55.86,38.62 56.16,37.1 C56.45,35.58 56.72,33.99 56.94,32.33 C57.16,30.66 57.42,28.61 57.72,26.17 C58.16,28.83 58.55,31.11 58.89,33 C59.22,34.89 59.56,36.66 59.89,38.33 C60.22,40 60.59,41.77 61,43.66 C61.41,45.55 61.94,47.82 62.61,50.49 L69.71,78.91 L96.24,78.91 L115.78,0.54 L91.69,0.54 L83.92,35.28 C83.48,37.5 83.11,39.37 82.81,40.89 C82.51,42.41 82.25,43.87 82.03,45.27 C81.81,46.68 81.59,48.14 81.36,49.65 C81.14,51.17 80.88,53 80.58,55.14 C80.36,53.07 80.14,51.27 79.91,49.76 C79.69,48.24 79.47,46.78 79.24,45.38 C79.02,43.98 78.72,42.44 78.35,40.77 C77.98,39.1 77.5,37.05 76.91,34.61 L68.36,0.53 L47.38,0.53 L39.28,34.61 C38.69,36.98 38.23,38.98 37.89,40.6 C37.56,42.23 37.26,43.76 37,45.21 C36.74,46.65 36.48,48.13 36.22,49.65 C35.96,51.17 35.68,53.04 35.39,55.26 C35.17,53.11 34.96,51.28 34.78,49.77 C34.59,48.25 34.37,46.77 34.11,45.33 C33.85,43.89 33.56,42.35 33.22,40.72 C32.89,39.09 32.46,37.1 31.94,34.73 L24.28,0.54 L0.08,0.54 L19.62,78.91 L46.28,78.91 L46.28,78.9 Z" id="Path" fill="#FF3D96"></path>
                <path d="M129.5,95.01 L121.95,125.76 C121.43,128.2 120.99,130.27 120.62,131.98 C120.25,133.68 119.92,135.29 119.62,136.81 C119.33,138.33 119.06,139.92 118.84,141.58 C118.62,143.25 118.36,145.3 118.06,147.74 C117.62,145.08 117.23,142.8 116.89,140.91 C116.56,139.02 116.22,137.25 115.89,135.58 C115.56,133.91 115.19,132.14 114.78,130.25 C114.37,128.36 113.84,126.09 113.17,123.42 L106.07,95 L79.54,95 L60,173.37 L84.09,173.37 L91.86,138.63 C92.3,136.41 92.67,134.54 92.97,133.02 C93.27,131.5 93.53,130.04 93.75,128.64 C93.97,127.23 94.19,125.77 94.42,124.26 C94.64,122.74 94.9,120.91 95.2,118.77 C95.42,120.84 95.64,122.64 95.87,124.15 C96.09,125.67 96.31,127.13 96.54,128.53 C96.76,129.93 97.06,131.47 97.43,133.14 C97.8,134.81 98.28,136.86 98.87,139.3 L107.42,173.38 L128.4,173.38 L136.5,139.3 C137.09,136.93 137.55,134.93 137.89,133.31 C138.22,131.68 138.52,130.15 138.78,128.7 C139.04,127.26 139.3,125.78 139.56,124.26 C139.82,122.74 140.1,120.87 140.39,118.65 C140.61,120.8 140.82,122.63 141,124.14 C141.19,125.66 141.41,127.14 141.67,128.58 C141.93,130.02 142.22,131.56 142.56,133.19 C142.89,134.82 143.32,136.81 143.84,139.18 L151.5,173.37 L175.7,173.37 L156.16,95 L129.5,95 L129.5,95.01 Z" id="Path" fill="#FF3D96"></path>
                <polygon id="Path" fill="#FFFFFF" points="91.188556 40 65.1872043 89.5748373 81.2191935 89.5748373 60 142 116.236089 72.1214751 103.183149 72.1214751 118 40"></polygon>
            </g>
        </g>
    </g>
</svg>